<?xml version="1.0" standalone="no"?>
<!DOCTYPE svg PUBLIC "-//W3C//DTD SVG 20010904//EN"
 "http://www.w3.org/TR/2001/REC-SVG-20010904/DTD/svg10.dtd">
<svg version="1.0" xmlns="http://www.w3.org/2000/svg"
 width="1000.000000pt" height="1000.000000pt" viewBox="0 0 1000.000000 1000.000000"
 preserveAspectRatio="xMidYMid meet">
<metadata>
Created by potrace 1.14, written by Peter Selinger 2001-2017
</metadata>
<g transform="translate(0.000000,1000.000000) scale(0.100000,-0.100000)"
fill="#000000" stroke="none">
<path d="M289 7650 c-1 -7 -1 -5268 0 -5297 l1 -22 2660 0 2660 0 0 664 0 664
-32 1 c-38 0 -53 0 -128 -3 l-55 -2 -1 -540 c-1 -297 -2 -547 -3 -555 -1 -13
-278 -15 -2443 -15 l-2443 0 0 2445 0 2445 30 2 c74 5 186 5 191 1 2 -3 19 -2
37 1 18 4 49 4 70 0 20 -3 37 -4 37 0 0 7 169 6 176 -2 2 -2 19 -1 37 2 18 4
49 4 70 0 20 -3 37 -4 37 0 0 7 169 6 176 -2 2 -2 19 -1 37 2 18 4 49 4 70 0
20 -3 37 -4 37 0 0 7 169 6 176 -2 2 -2 19 -1 37 2 18 4 49 4 70 0 20 -3 37
-4 37 0 0 7 169 6 176 -2 2 -2 19 -1 37 2 18 4 49 4 70 0 20 -3 37 -4 37 0 0
7 169 6 176 -2 2 -2 19 -1 37 2 18 4 49 4 70 0 20 -3 37 -4 37 0 0 5 123 4
205 0 6 -1 35 -1 65 0 30 0 73 1 94 1 22 1 43 3 47 6 4 2 10 1 13 -4 3 -4 29
-5 60 -2 30 3 62 3 72 0 9 -4 37 -3 61 0 24 4 46 4 48 0 2 -3 28 -3 59 0 30 3
62 3 72 0 9 -4 37 -3 61 0 24 4 46 4 48 0 2 -3 28 -3 59 0 30 3 62 3 72 0 9
-4 37 -3 61 0 24 4 46 4 48 0 2 -3 28 -3 59 0 30 3 62 3 72 0 9 -4 37 -3 61 0
24 4 46 4 48 0 2 -3 28 -3 59 0 30 3 62 3 72 0 9 -4 37 -3 61 0 24 4 46 4 48
0 2 -3 28 -3 59 0 30 3 62 3 72 0 9 -4 37 -3 61 0 24 4 46 4 48 0 2 -3 28 -3
59 0 30 3 62 3 72 0 9 -4 37 -3 61 0 24 4 46 4 48 0 2 -3 28 -3 59 0 30 3 62
3 72 0 9 -4 37 -3 61 0 24 4 46 4 48 0 2 -3 28 -3 59 0 30 3 62 3 72 0 9 -4
37 -3 61 0 24 4 46 4 48 0 2 -3 28 -3 59 0 30 3 62 3 72 0 9 -4 37 -3 60 0 24
4 46 4 49 2 3 -3 27 -5 53 -3 l47 2 0 -555 c0 -362 3 -557 10 -559 6 -2 53 -3
105 -2 l95 1 3 662 2 662 -22 1 c-91 4 -5298 3 -5299 -1z"/>
<path d="M2997 6174 c-1 -1 -31 -4 -67 -8 -129 -12 -231 -35 -340 -78 -69 -27
-198 -93 -210 -107 -3 -3 -22 -19 -42 -34 -187 -139 -333 -373 -391 -628 -8
-35 -19 -86 -23 -114 -9 -63 -10 -375 -1 -435 4 -25 12 -76 18 -115 6 -38 15
-74 19 -80 4 -5 7 -17 7 -25 0 -24 52 -158 90 -230 90 -168 231 -306 400 -389
67 -33 194 -77 248 -85 20 -4 40 -8 44 -10 41 -26 490 -27 611 -2 8 1 33 6 55
10 105 20 292 83 353 119 17 10 32 20 32 22 0 1 -12 34 -26 71 -14 38 -27 76
-29 84 -2 8 -11 35 -20 60 -9 25 -18 52 -20 60 -10 42 -45 125 -52 123 -4 -1
-30 -12 -58 -24 -27 -12 -53 -23 -57 -24 -5 -2 -9 -3 -10 -5 -2 -1 -10 -3 -18
-5 -8 -2 -44 -11 -80 -21 -36 -9 -78 -18 -95 -20 -16 -2 -41 -6 -55 -10 -68
-17 -293 -11 -389 10 -79 17 -191 77 -252 133 -97 90 -165 243 -188 423 -9 74
-7 332 2 347 3 4 8 25 11 46 8 52 63 192 81 207 8 7 15 19 15 27 0 8 33 47 74
88 141 138 301 185 561 161 33 -2 71 -7 85 -10 14 -3 39 -8 55 -12 53 -11 158
-46 221 -75 l62 -27 11 21 c9 18 40 105 55 152 2 6 9 24 15 40 7 17 14 37 16
45 2 8 13 39 24 68 32 80 30 86 -46 122 -85 41 -137 61 -198 76 -121 31 -161
39 -265 50 -55 6 -228 12 -233 8z"/>
<path d="M4907 6122 c-15 -3 -50 -68 -114 -212 -14 -30 -38 -84 -55 -120 -27
-59 -43 -94 -68 -155 -5 -11 -18 -40 -28 -65 -11 -25 -45 -108 -77 -185 -31
-77 -66 -159 -76 -182 -10 -24 -19 -47 -19 -51 0 -5 -6 -22 -14 -38 -18 -37
-89 -218 -156 -399 -95 -255 -112 -299 -140 -380 -24 -69 -62 -174 -148 -417
-11 -32 -17 -58 -14 -59 33 -5 506 -2 514 2 9 6 121 318 133 370 2 9 13 39 25
66 l21 50 439 -1 c480 0 444 4 456 -48 1 -5 3 -10 4 -13 1 -3 3 -8 5 -12 1 -5
4 -15 8 -23 17 -45 59 -168 62 -185 3 -11 9 -29 14 -40 5 -11 20 -51 32 -90
13 -38 26 -72 30 -75 4 -3 126 -5 271 -4 301 0 275 -11 233 104 -12 36 -39
112 -60 170 -20 58 -40 114 -44 125 -4 11 -14 36 -20 55 -47 135 -74 208 -81
225 -5 11 -32 83 -60 160 -28 77 -55 149 -60 160 -16 36 -61 150 -65 165 -5
20 -178 441 -215 525 -10 22 -32 74 -50 115 -17 41 -43 98 -56 125 -12 28 -51
111 -84 185 -34 74 -65 139 -70 144 -8 8 -436 15 -473 8z m253 -604 c17 -46
38 -96 45 -113 7 -16 34 -86 60 -155 26 -69 59 -154 72 -190 14 -36 29 -76 34
-90 4 -14 23 -68 41 -122 l35 -96 -319 -1 c-175 0 -318 4 -318 9 0 14 213 587
254 685 7 17 18 45 24 63 23 62 34 92 37 92 1 0 17 -37 35 -82z"/>
<path d="M7383 6120 c-10 -3 -47 -36 -83 -75 -35 -38 -67 -72 -70 -75 -6 -5
-146 -173 -192 -231 -15 -19 -59 -77 -98 -129 -39 -52 -77 -102 -84 -110 -51
-63 -379 -580 -381 -600 0 -3 -22 -44 -48 -92 l-48 -86 0 -172 c-1 -94 2 -174
6 -178 4 -4 217 -8 473 -9 257 0 474 -2 483 -2 14 -1 16 -29 15 -247 -1 -238
0 -247 19 -253 15 -5 428 -7 455 -2 3 1 5 113 4 251 0 170 3 250 10 251 6 0
61 2 121 2 l110 2 0 193 c1 113 -3 196 -9 199 -5 4 -59 7 -120 7 l-111 1 0
672 c-1 370 -4 675 -7 679 -8 7 -418 11 -445 4z m-27 -978 l0 -379 -253 0
c-139 0 -253 3 -253 6 0 3 13 31 28 61 24 47 44 82 125 215 11 17 34 50 89
126 45 62 188 256 202 274 9 11 26 32 38 48 12 15 22 27 23 27 1 0 1 -170 1
-378z"/>
</g>
</svg>
