<svg xmlns="http://www.w3.org/2000/svg" version="1.1" xmlns:xlink="http://www.w3.org/1999/xlink" xmlns:svgjs="http://svgjs.dev/svgjs" width="1000" height="623" viewBox="0 0 1000 623"><g transform="matrix(1,0,0,1,-0.6060606060606233,0.2522267206477409)"><svg viewBox="0 0 396 247" data-background-color="#f6f6f6" preserveAspectRatio="xMidYMid meet" height="623" width="1000" xmlns="http://www.w3.org/2000/svg" xmlns:xlink="http://www.w3.org/1999/xlink"><g id="tight-bounds" transform="matrix(1,0,0,1,0.2400000000000091,-0.09999999999999432)"><svg viewBox="0 0 395.52 247.2" height="247.2" width="395.52"><g><svg></svg></g><g><svg viewBox="0 0 395.52 247.2" height="247.2" width="395.52"><g transform="matrix(1,0,0,1,75.54432000000001,76.74849594909861)"><svg viewBox="0 0 244.43135999999996 93.70300810180275" height="93.70300810180275" width="244.43135999999996"><g><svg viewBox="0 0 244.43135999999996 93.70300810180275" height="93.70300810180275" width="244.43135999999996"><g><svg viewBox="0 0 244.43135999999996 93.70300810180275" height="93.70300810180275" width="244.43135999999996"><g><svg viewBox="0 0 244.43135999999996 93.70300810180275" height="93.70300810180275" width="244.43135999999996"><g id="textblocktransform"><svg viewBox="0 0 244.43135999999996 93.70300810180275" height="93.70300810180275" width="244.43135999999996" id="textblock"><g><svg viewBox="0 0 244.43135999999996 93.70300810180275" height="93.70300810180275" width="244.43135999999996"><g transform="matrix(1,0,0,1,0,0)"><svg width="244.43135999999996" viewBox="2.5 -35.45000076293945 94.30000305175781 36.150001525878906" height="93.70300810180275" data-palette-color="url(#f7fb6bf9-251c-4d5e-b8a8-358c83c6a91c)"></svg></g></svg></g></svg></g></svg></g></svg></g></svg></g></svg></g></svg></g><defs></defs><mask id="fdff082c-c5de-4cb2-8de8-3f2a36e064b5"><g id="SvgjsG1922"><svg viewBox="0 0 395.52 247.2" height="247.2" width="395.52"><g><svg></svg></g><g><svg viewBox="0 0 395.52 247.2" height="247.2" width="395.52"><g transform="matrix(1,0,0,1,75.54432000000001,76.74849594909861)"><svg viewBox="0 0 244.43135999999996 93.70300810180275" height="93.70300810180275" width="244.43135999999996"><g><svg viewBox="0 0 244.43135999999996 93.70300810180275" height="93.70300810180275" width="244.43135999999996"><g><svg viewBox="0 0 244.43135999999996 93.70300810180275" height="93.70300810180275" width="244.43135999999996"><g><svg viewBox="0 0 244.43135999999996 93.70300810180275" height="93.70300810180275" width="244.43135999999996"><g id="SvgjsG1921"><svg viewBox="0 0 244.43135999999996 93.70300810180275" height="93.70300810180275" width="244.43135999999996" id="SvgjsSvg1920"><g><svg viewBox="0 0 244.43135999999996 93.70300810180275" height="93.70300810180275" width="244.43135999999996"><g transform="matrix(1,0,0,1,0,0)"><svg width="244.43135999999996" viewBox="2.5 -35.45000076293945 94.30000305175781 36.150001525878906" height="93.70300810180275" data-palette-color="url(#f7fb6bf9-251c-4d5e-b8a8-358c83c6a91c)"><path d="M19.8 0.7L19.8 0.7Q11.35 0.7 6.93-4 2.5-8.7 2.5-17.35L2.5-17.35Q2.5-21.65 3.85-25.03 5.2-28.4 7.55-30.73 9.9-33.05 13.15-34.25 16.4-35.45 20.2-35.45L20.2-35.45Q22.4-35.45 24.2-35.13 26-34.8 27.35-34.38 28.7-33.95 29.6-33.5 30.5-33.05 30.9-32.8L30.9-32.8 28.65-26.5Q27.05-27.35 24.93-27.95 22.8-28.55 20.1-28.55L20.1-28.55Q18.3-28.55 16.57-27.95 14.85-27.35 13.53-26.03 12.2-24.7 11.4-22.6 10.6-20.5 10.6-17.5L10.6-17.5Q10.6-15.1 11.13-13.03 11.65-10.95 12.83-9.45 14-7.95 15.9-7.08 17.8-6.2 20.5-6.2L20.5-6.2Q22.2-6.2 23.55-6.4 24.9-6.6 25.95-6.88 27-7.15 27.8-7.5 28.6-7.85 29.25-8.15L29.25-8.15 31.4-1.9Q29.75-0.9 26.75-0.1 23.75 0.7 19.8 0.7ZM69.35 0L61 0Q60.45-1.8 59.77-3.7 59.1-5.6 58.45-7.5L58.45-7.5 44.95-7.5Q44.3-5.6 43.62-3.7 42.95-1.8 42.4 0L42.4 0 34.3 0Q36.25-5.6 38-10.35 39.75-15.1 41.42-19.3 43.1-23.5 44.72-27.28 46.35-31.05 48.1-34.65L48.1-34.65 55.55-34.65Q57.25-31.05 58.9-27.28 60.55-23.5 62.22-19.3 63.9-15.1 65.65-10.35 67.4-5.6 69.35 0L69.35 0ZM51.65-26.8L51.65-26.8Q51.4-26.05 50.9-24.75 50.4-23.45 49.75-21.75 49.1-20.05 48.32-18 47.55-15.95 46.75-13.7L46.75-13.7 56.6-13.7Q55.8-15.95 55.05-18 54.3-20.05 53.62-21.75 52.95-23.45 52.45-24.75 51.95-26.05 51.65-26.8ZM85.8-13.85L85.8-25.55Q83.84-23 81.64-20 79.44-17 77.94-13.85L77.94-13.85 85.8-13.85ZM86.05-34.65L93.09-34.65 93.09-13.85 96.8-13.85 96.8-7.75 93.09-7.75 93.09 0 85.8 0 85.8-7.75 70.84-7.75 70.84-13.2Q71.94-15.4 73.59-18.18 75.25-20.95 77.27-23.88 79.3-26.8 81.55-29.6 83.8-32.4 86.05-34.65L86.05-34.65Z" opacity="1" transform="matrix(1,0,0,1,0,0)" fill="white" class="wordmark-text-0" id="SvgjsPath1919"></path></svg></g></svg></g></svg></g></svg></g></svg></g></svg></g></svg></g><path d="M222.148 70.748L222.148 18.105 11.157 18.105 11.157 229.095 222.148 229.095 222.148 176.452 213.697 176.452 213.697 220.645 19.607 220.645 19.607 26.555 213.697 26.555 213.697 70.748Z" fill="white" stroke="transparent"></path></svg></g><defs><mask></mask></defs></svg></g></mask><linearGradient x1="0.054" x2="0.941" y1="0.5" y2="0.5" id="f7fb6bf9-251c-4d5e-b8a8-358c83c6a91c"><stop stop-color="#0f3054" offset="0"></stop><stop stop-color="#3b8dcb" offset="0.498"></stop><stop stop-color="#0f3054" offset="1"></stop></linearGradient><rect width="395.5199890136719" height="247.1999969482422" fill="url(#f7fb6bf9-251c-4d5e-b8a8-358c83c6a91c)" mask="url(#fdff082c-c5de-4cb2-8de8-3f2a36e064b5)" data-fill-palette-color="primary"></rect></svg><rect width="395.52" height="247.2" fill="none" stroke="none" visibility="hidden"></rect></g></svg></g></svg>